<?xml version="1.0" standalone="no"?>
<!DOCTYPE svg PUBLIC "-//W3C//DTD SVG 20010904//EN"
 "http://www.w3.org/TR/2001/REC-SVG-20010904/DTD/svg10.dtd">
<svg version="1.0" xmlns="http://www.w3.org/2000/svg"
 width="6000.000000pt" height="3600.000000pt" viewBox="0 0 6000.000000 3600.000000"
 preserveAspectRatio="xMidYMid meet">
<metadata>
Created by potrace 1.14, written by Peter Selinger 2001-2017
</metadata>
<g transform="translate(0.000000,3600.000000) scale(0.100000,-0.100000)"
fill="#000000" stroke="none">
<path d="M22610 25310 c0 -343 0 -350 -20 -350 -20 0 -20 -7 -20 -970 0 -856
-2 -970 -15 -970 -13 0 -15 43 -15 330 l0 330 -45 0 -45 0 0 -380 c0 -373 0
-380 -20 -380 -20 0 -20 7 -20 640 l0 640 -45 0 -45 0 0 -640 0 -640 -65 0
-65 0 0 -950 0 -950 -170 0 -170 0 0 -1380 0 -1380 -205 0 -205 0 0 -1413 c0
-778 -3 -1502 -7 -1610 l-6 -197 -39 0 -38 0 0 380 0 380 35 0 35 0 0 80 0 80
-35 0 -35 0 0 140 0 140 -55 0 -55 0 0 85 0 85 -45 0 -45 0 0 50 c0 43 -3 50
-20 50 -18 0 -20 7 -20 70 l0 70 -50 0 -50 0 0 120 c0 100 -2 120 -15 120 -12
0 -15 13 -15 55 l0 55 -60 0 -60 0 0 40 c0 39 -1 40 -35 40 l-35 0 0 85 0 85
-40 0 -40 0 0 -85 0 -85 -29 0 c-27 0 -30 -3 -33 -37 l-3 -38 -57 -3 -58 -3 0
-54 c0 -42 -4 -55 -15 -55 -12 0 -15 -20 -15 -120 l0 -120 -50 0 -50 0 0 -70
c0 -68 -1 -70 -25 -70 -23 0 -25 -3 -25 -50 l0 -50 -40 0 -40 0 0 -85 0 -85
-55 0 -55 0 0 -140 0 -140 -35 0 -35 0 0 -80 0 -80 35 0 35 0 0 -381 0 -380
-42 3 -43 3 -3 128 -3 127 -239 0 -239 0 -3 -127 -3 -128 -47 -3 -48 -3 0
-1830 0 -1829 -50 0 -50 0 0 3465 0 3465 -155 0 -155 0 0 120 0 120 -235 0
-235 0 0 -120 0 -120 -155 0 -155 0 0 -1695 0 -1695 -90 0 -90 0 0 160 0 160
-165 0 -165 0 0 110 0 110 -35 0 -35 0 0 105 0 105 -40 0 -40 0 0 50 0 50
-105 0 -105 0 0 485 0 485 -40 0 -40 0 0 -485 c0 -317 -3 -485 -10 -485 -6 0
-10 28 -10 65 l0 65 -55 0 -55 0 0 -65 0 -65 -80 0 -80 0 0 -50 0 -50 -65 0
-65 0 0 -105 0 -105 -135 0 -135 0 0 -110 0 -110 -140 0 -140 0 0 630 0 630
-200 0 -200 0 0 75 0 75 -425 0 -425 0 0 335 0 335 -385 0 -385 0 0 -335 0
-335 -430 0 -430 0 0 -75 0 -75 -200 0 -200 0 0 -2560 0 -2560 -55 0 -55 0 0
2765 0 2765 -75 0 -75 0 0 310 0 310 -40 0 -40 0 0 115 0 115 -35 0 -35 0 0
70 c0 68 1 70 25 70 23 0 25 4 25 45 0 41 -2 45 -25 45 l-25 0 0 265 0 265
-78 0 -78 0 -184 245 c-102 135 -189 244 -194 242 -5 -2 -91 -111 -190 -243
l-181 -239 -77 -3 -78 -3 0 -264 0 -265 -25 0 c-23 0 -25 -4 -25 -45 0 -41 2
-45 25 -45 24 0 25 -2 25 -70 l0 -70 -35 0 -35 0 0 -115 0 -115 -45 0 -45 0 0
-310 0 -310 -70 0 -70 0 0 -2765 0 -2765 -85 0 -85 0 0 5959 0 5960 -42 3 -43
3 -3 481 c-2 474 -3 481 -23 500 -33 30 -227 32 -417 4 -499 -71 -1183 -292
-1351 -437 l-41 -35 0 -135 0 -135 -80 7 -80 7 0 -241 0 -241 -75 0 -75 0 0
-1115 0 -1115 -114 0 -115 0 -3 -37 -3 -38 -52 -3 -53 -3 0 -1475 0 -1474
-375 0 -375 0 0 -995 0 -995 -75 0 -75 0 0 -1870 0 -1870 -110 0 -110 0 0 148
-1 147 -244 253 -245 252 0 325 c0 210 -4 325 -10 325 -6 0 -10 -118 -10 -332
l-1 -333 -237 -245 c-130 -135 -242 -246 -249 -248 -10 -3 -13 -39 -13 -148
l0 -144 -255 0 -255 0 0 111 0 112 49 66 c26 36 60 85 75 108 26 42 26 42 74
36 59 -7 119 20 154 69 21 31 23 42 23 175 0 128 -2 144 -21 170 l-21 28 21
97 c20 91 22 97 49 102 44 9 88 45 108 90 27 59 27 243 0 302 -20 43 -56 75
-105 91 -28 9 -30 14 -50 115 l-21 106 20 26 c17 24 20 45 23 159 2 122 1 135
-20 172 -32 55 -96 88 -160 81 l-47 -5 -32 52 c-17 29 -51 78 -75 109 l-44 56
0 119 c0 109 -2 121 -24 154 -55 80 -169 93 -241 28 -20 -18 -22 -18 -70 17
-28 20 -92 61 -142 91 l-93 55 0 66 c0 140 -88 222 -205 191 -45 -12 -115 -79
-115 -109 0 -24 -7 -24 -85 -6 -33 8 -97 20 -141 26 l-81 12 -5 74 c-4 60 -10
79 -33 110 -66 86 -194 86 -260 0 -23 -31 -29 -50 -33 -110 l-5 -74 -81 -12
c-44 -6 -108 -18 -141 -26 -78 -18 -85 -18 -85 6 0 30 -70 97 -115 109 -74 19
-145 -11 -183 -78 -17 -30 -22 -55 -22 -109 l0 -70 -89 -52 c-49 -29 -120 -76
-159 -105 l-69 -52 -26 33 c-70 87 -221 64 -268 -40 -15 -32 -18 -64 -18 -151
0 -60 4 -119 8 -129 6 -15 -7 -41 -48 -103 l-55 -83 -38 6 c-54 9 -121 -19
-156 -64 -26 -35 -27 -38 -27 -178 0 -127 2 -145 20 -169 l20 -27 -21 -107
c-21 -105 -21 -106 -55 -115 -44 -13 -104 -75 -112 -116 -4 -18 -7 -78 -7
-134 0 -77 5 -111 19 -142 20 -45 64 -81 108 -90 27 -5 29 -11 49 -102 l21
-97 -21 -28 c-17 -23 -22 -46 -25 -119 -3 -86 -4 -90 -25 -84 -315 87 -679 79
-991 -21 -387 -124 -716 -387 -859 -686 -63 -131 -80 -210 -74 -349 6 -127 26
-195 78 -260 l31 -38 -501 0 -500 0 0 -525 0 -525 30000 0 30000 0 0 525 0
525 -250 0 -250 0 0 205 0 205 -220 0 -220 0 0 1765 0 1765 -55 0 -55 0 0 50
0 50 -90 0 -90 0 0 -50 0 -50 -40 0 -40 0 0 50 0 50 -85 0 -85 0 0 -50 0 -50
-40 0 -40 0 0 50 0 50 -100 0 -100 0 0 -50 0 -50 -50 0 -50 0 0 -1765 0 -1765
-145 0 -145 0 0 2515 0 2515 -170 0 -170 0 0 175 0 175 -34 0 -35 0 -3 53 -3
52 -162 3 -162 2 -3 -52 -3 -53 -267 -3 -268 -2 0 -2445 0 -2445 -70 0 -70 0
0 2180 0 2180 -110 0 -110 0 0 310 0 309 -87 3 -88 3 -3 173 -2 172 -225 0
-225 0 0 -175 0 -175 -85 0 -85 0 0 -310 0 -310 -115 0 -115 0 0 -2180 0
-2180 -105 0 -105 0 0 1275 0 1275 -50 0 -50 0 0 35 0 35 -265 0 -265 0 0 -35
0 -35 -55 0 -55 0 0 85 0 85 -180 0 c-173 0 -180 1 -180 20 0 18 -7 20 -80 20
-73 0 -80 -2 -80 -20 0 -19 -7 -20 -95 -20 l-95 0 0 -85 0 -85 -220 0 -220 0
0 105 0 105 -240 0 -240 0 0 -105 0 -105 -75 0 -75 0 0 -1320 0 -1320 -90 0
-90 0 0 3495 0 3495 -80 0 -80 0 0 100 0 100 -50 0 -50 0 0 -100 0 -100 -25 0
-25 0 0 100 0 100 -75 0 -75 0 0 -100 0 -100 -25 0 -25 0 0 100 0 100 -50 0
-50 0 0 -100 0 -100 -85 0 -85 0 0 -280 0 -280 -310 0 -310 0 0 -45 0 -45 -45
0 -45 0 0 -2850 0 -2850 -155 0 -155 0 0 715 0 715 -65 0 -65 0 0 81 c0 72 -2
81 -20 86 -11 3 -20 12 -20 19 0 9 -11 14 -30 14 -20 0 -30 -5 -30 -15 0 -11
-11 -15 -40 -15 l-40 0 0 55 0 55 -45 0 -45 0 0 -55 0 -55 -45 0 -45 0 0 -85
0 -85 -50 0 -50 0 0 120 0 120 -190 0 -190 0 0 45 0 45 -105 0 -105 0 0 -45 0
-45 -105 0 -105 0 0 1450 0 1450 -30 0 -30 0 0 120 0 120 -155 0 -155 0 0 -75
0 -75 -105 0 -105 0 0 -45 c0 -45 0 -45 -35 -45 l-35 0 0 -1570 0 -1570 -95 0
-95 0 0 -1440 0 -1440 -30 0 -30 0 0 3054 0 3055 -26 3 c-25 3 -34 22 -167
381 -77 208 -144 374 -148 370 -4 -5 -21 -43 -36 -85 l-29 -78 -177 294 -177
293 0 357 0 356 -55 0 -55 0 0 -362 0 -363 -172 -287 -173 -288 -30 79 c-16
44 -33 82 -36 86 -3 3 -57 -131 -119 -297 -187 -502 -167 -458 -201 -458 l-29
0 0 -3055 0 -3055 -35 0 -35 0 0 1627 0 1626 -362 484 c-200 265 -366 483
-370 483 -5 0 -8 -119 -8 -265 l0 -265 -30 0 -30 0 -2 253 -3 253 -277 -468
-278 -468 0 -1630 0 -1630 -45 0 -45 0 0 3315 0 3315 -240 0 -240 0 0 1349 0
1350 -52 3 -53 3 -3 73 -3 72 -109 0 -110 0 0 -75 0 -75 -40 0 -40 0 0 220 0
219 -157 3 -158 3 -3 138 -3 137 -54 0 -55 0 0 -140 0 -140 -160 0 -160 0 0
-220 0 -220 -35 0 -34 0 -3 73 -3 72 -112 3 -113 3 0 -76 0 -75 -50 0 -50 0
-2 -1347 -3 -1348 -237 -3 -238 -2 0 -3315 c0 -2940 -2 -3315 -15 -3315 -13 0
-15 44 -15 335 l0 335 -55 0 -55 0 0 174 c0 145 -2 175 -15 180 -11 4 -15 20
-15 56 0 47 2 50 25 50 34 0 37 47 3 52 -19 2 -24 10 -26 46 -3 36 -6 42 -25
42 -14 0 -43 21 -76 54 -48 49 -52 55 -39 75 14 23 5 46 -25 65 -19 12 -43 1
-61 -27 -8 -12 -7 -23 2 -38 13 -20 9 -26 -39 -75 -33 -33 -62 -54 -76 -54
-19 0 -22 -6 -25 -42 -2 -36 -7 -44 -25 -46 -35 -5 -32 -52 2 -52 23 0 25 -3
25 -50 0 -36 -4 -52 -15 -56 -13 -5 -15 -35 -15 -180 l0 -174 -187 0 -187 0
30 31 29 30 9 -23 c14 -32 13 -32 29 -16 15 15 29 116 16 123 -4 3 -58 -49
-121 -115 l-113 -120 -75 0 c-75 0 -76 0 -123 43 l-48 42 118 124 c117 124
117 124 128 97 11 -26 12 -26 28 -8 11 12 15 32 14 65 -2 25 -6 49 -9 52 -3 3
-22 -14 -43 -37 -22 -24 -87 -94 -147 -157 l-107 -114 -86 77 c-47 43 -85 81
-84 84 0 4 52 61 115 127 102 107 115 118 120 98 8 -29 20 -29 37 0 11 18 14
61 8 102 -1 6 -70 -61 -154 -148 l-152 -158 -85 79 -85 79 52 59 c28 32 81 88
118 124 61 60 66 63 71 42 7 -25 17 -28 32 -9 14 17 19 110 6 114 -6 2 -30
-18 -54 -44 -24 -26 -90 -97 -146 -156 l-103 -109 -85 82 -85 82 111 119 c62
65 115 119 119 119 4 0 11 -9 14 -21 6 -19 8 -19 25 -4 13 11 17 30 17 65 0
28 -4 50 -8 50 -4 0 -73 -70 -155 -155 l-147 -155 -81 77 c-45 43 -82 81 -84
84 -3 7 215 238 226 239 4 1 8 -8 10 -20 4 -24 15 -26 32 -5 16 19 21 115 5
115 -6 0 -76 -69 -155 -154 l-144 -153 -87 80 -87 81 116 124 c116 123 117
124 128 98 10 -25 11 -26 26 -9 18 21 30 111 15 116 -9 3 -50 -38 -244 -242
l-61 -65 -86 78 -86 78 20 25 c11 14 62 70 115 124 95 99 95 100 107 74 10
-23 13 -24 29 -9 13 12 17 28 15 65 -1 27 -5 51 -8 54 -2 3 -69 -64 -148 -148
-79 -83 -147 -153 -150 -155 -4 -1 -52 41 -109 94 -85 81 -104 95 -115 83 -6
-8 -49 -53 -94 -100 l-82 -85 363 -340 c199 -187 484 -455 633 -595 l271 -254
-69 -3 -68 -3 0 -104 0 -105 -280 0 -280 0 0 -185 0 -185 -1140 0 -1140 0 0
205 0 204 -59 3 -58 3 698 654 697 655 -73 75 c-41 42 -82 87 -93 100 l-19 25
-102 -95 c-56 -51 -105 -95 -109 -96 -4 -2 -72 67 -152 152 -79 85 -147 155
-150 155 -14 0 -8 -106 8 -123 15 -17 16 -16 27 9 11 27 11 27 128 -96 l117
-124 -82 -77 c-46 -43 -86 -78 -89 -79 -3 0 -72 70 -154 155 -81 85 -150 153
-155 150 -13 -8 2 -109 19 -122 13 -9 18 -7 26 13 10 24 14 20 123 -95 61 -66
111 -123 111 -128 -1 -4 -38 -43 -83 -85 l-82 -78 -149 160 c-82 88 -151 157
-154 155 -2 -3 -6 -27 -7 -54 -2 -37 2 -53 16 -66 17 -15 19 -15 25 4 3 12 10
21 15 21 5 0 58 -53 119 -117 l111 -118 -68 -68 c-106 -108 -84 -113 -253 64
-111 116 -150 151 -159 143 -8 -8 -8 -14 -2 -18 6 -3 8 -24 5 -45 -4 -32 -2
-41 15 -50 16 -9 21 -7 25 10 3 12 10 20 15 18 6 -2 60 -56 120 -120 l111
-116 -57 -54 c-31 -30 -71 -67 -88 -82 l-30 -27 -145 155 c-79 85 -148 153
-154 152 -5 -2 -8 -26 -6 -53 4 -68 31 -99 45 -51 6 20 18 10 121 -98 63 -66
115 -123 115 -126 0 -4 -38 -41 -84 -83 l-84 -76 -148 155 c-81 85 -150 153
-152 150 -3 -3 -7 -27 -9 -54 -2 -38 2 -52 17 -66 15 -14 20 -15 20 -4 0 8 5
21 10 29 7 12 31 -9 117 -99 59 -63 111 -119 115 -125 4 -7 -28 -44 -79 -91
l-86 -79 -50 55 c-225 239 -246 259 -271 259 -24 0 -26 4 -26 40 0 34 -3 40
-21 40 -23 0 -147 112 -130 118 15 5 14 55 -1 70 -15 15 -51 15 -66 0 -15 -15
-16 -55 -1 -64 17 -10 -100 -124 -128 -124 -20 0 -23 -5 -23 -40 0 -33 -3 -40
-20 -40 -16 0 -20 -7 -20 -30 0 -23 4 -30 20 -30 17 0 20 -7 20 -50 0 -27 -4
-50 -10 -50 -6 0 -10 -73 -10 -200 0 -171 -2 -200 -15 -200 -10 0 -15 -10 -15
-30 0 -25 4 -30 25 -30 16 0 25 -6 25 -15 0 -10 -11 -15 -35 -15 l-35 0 0
-150 c0 -143 -1 -150 -20 -150 -20 0 -20 7 -20 3050 l0 3050 -260 0 -260 0 0
45 0 45 -90 0 -90 0 0 55 0 55 -130 0 -130 0 0 -55 0 -55 -215 0 -215 0 0 -45
0 -45 -90 0 -90 0 0 -2026 c0 -1806 -2 -2026 -15 -2020 -8 3 -128 58 -265 123
-191 89 -250 121 -250 135 0 10 -7 18 -15 18 -8 0 -15 7 -15 15 0 8 -7 15 -15
15 -8 0 -15 5 -15 10 0 6 -9 10 -20 10 -11 0 -20 -4 -20 -10 0 -5 -9 -10 -20
-10 -11 0 -20 -7 -20 -15 0 -8 -6 -15 -14 -15 -8 0 -16 -9 -18 -21 -2 -16
-101 -66 -513 -259 -280 -132 -520 -240 -532 -240 -16 0 -23 8 -28 30 -5 23
-12 30 -31 30 l-24 0 7 -145 6 -145 -156 0 -157 0 0 2730 0 2730 -110 0 -110
0 0 120 0 120 -335 0 -335 0 0 -120 0 -120 -110 0 -110 0 0 -3520 0 -3520 -90
0 -90 0 0 3230 0 3230 -685 0 -685 0 0 140 0 140 -145 0 -145 0 0 180 0 180
-50 0 -49 0 -3 -67 -3 -68 -87 -3 -88 -3 0 71 c0 56 -3 70 -15 70 -13 0 -15
47 -15 360 l0 360 -25 0 -25 0 0 -360 0 -360 -55 0 -55 0 0 475 c0 468 0 475
-20 475 -20 0 -20 -7 -20 -545 l0 -545 -115 0 -115 0 0 70 0 70 -50 0 -50 0 0
-180 0 -180 -85 0 -85 0 0 -140 0 -140 -500 0 -500 0 0 -1805 0 -1805 -70 0
-70 0 0 55 0 54 -77 3 -78 3 -3 98 -3 97 -134 0 -135 0 0 95 0 95 -160 0 -160
0 0 -95 0 -95 -140 0 -140 0 0 -100 0 -100 -75 0 -75 0 0 -55 0 -55 -340 0
-340 0 0 -50 0 -50 -60 0 -60 0 0 -85 0 -85 60 0 60 0 0 -1290 0 -1290 -85 0
-85 0 0 1815 0 1815 -55 0 -55 0 0 340 0 340 -40 0 -40 0 0 209 0 210 -255
153 c-250 150 -255 154 -255 185 0 27 -4 33 -22 33 -43 0 -45 8 -35 129 7 93
6 117 -5 125 -7 6 -13 22 -13 36 0 16 -6 25 -15 25 -10 0 -15 -9 -14 -25 1
-14 -6 -30 -14 -36 -14 -10 -14 -24 -3 -122 7 -61 10 -116 6 -122 -3 -5 -19
-10 -36 -10 -26 0 -29 -3 -29 -34 0 -33 -2 -35 -250 -182 l-249 -149 -1 -212
0 -213 -40 0 -40 0 0 -340 0 -340 -60 0 -60 0 0 -1815 0 -1815 -60 0 -60 0 -2
3438 -3 3437 -207 3 -208 2 0 1380 0 1380 -165 0 -165 0 0 950 0 950 -145 0
-145 0 0 675 0 675 -35 0 -35 0 0 -625 0 -625 -40 0 -40 0 0 1280 0 1280 -80
0 -80 0 0 -620 0 -620 -25 0 -25 0 0 -610 0 -610 -55 0 -55 0 0 920 c0 913 0
920 -20 920 -20 0 -20 7 -20 350 l0 350 -60 0 -60 0 0 -350z m-18186 -10248
c8 -52 43 -101 89 -125 33 -17 37 -23 37 -58 0 -21 -2 -39 -4 -39 -86 0 -305
-41 -453 -85 -31 -10 -42 29 -15 58 29 33 42 82 42 158 0 67 0 67 33 78 33 10
169 37 222 44 17 2 33 5 36 6 4 0 9 -16 13 -37z m476 12 c41 -8 92 -19 113
-25 l37 -10 0 -67 c0 -81 13 -133 40 -157 22 -20 24 -33 11 -53 -6 -10 -26 -8
-97 13 -87 25 -210 48 -326 60 l-58 6 0 39 c0 34 4 40 38 57 45 24 80 73 88
124 7 43 3 42 154 13z m658 -276 l72 -50 0 -116 0 -116 -31 -32 -31 -32 -100
78 c-55 43 -143 102 -196 131 -54 29 -99 54 -100 55 -2 1 -1 11 2 21 4 14 17
18 50 19 27 1 59 10 81 24 34 21 75 83 75 114 0 18 58 -14 178 -96z m-1754 56
c23 -57 76 -94 137 -97 74 -3 80 -33 12 -66 -81 -39 -162 -91 -258 -166 l-93
-73 -56 57 -56 57 0 71 0 72 80 58 c79 57 198 133 209 133 3 0 14 -21 25 -46z
m1066 -99 c88 -18 200 -54 200 -63 0 -6 -220 -543 -225 -550 -2 -2 -43 5 -91
14 -49 9 -99 18 -111 20 l-23 4 0 303 0 303 88 -8 c48 -4 121 -14 162 -23z
m-320 -275 l0 -300 -22 -4 c-13 -2 -63 -11 -112 -20 -48 -9 -89 -16 -91 -14
-4 7 -218 524 -222 539 -4 13 10 22 60 38 93 31 242 59 320 60 l67 1 0 -300z
m-408 -97 l116 -278 -52 -29 c-28 -16 -69 -43 -92 -62 l-41 -33 -213 214 -214
214 28 30 c59 62 305 220 342 221 6 0 63 -125 126 -277z m1098 236 c87 -47
215 -138 256 -180 l28 -30 -214 -214 -213 -214 -41 33 c-23 19 -64 47 -93 63
l-51 29 116 277 c63 152 120 277 126 277 6 0 45 -19 86 -41z m-1723 -190 l32
-32 -58 -71 c-74 -91 -130 -174 -171 -256 -18 -36 -34 -67 -36 -69 -2 -2 -28
6 -59 19 l-55 22 0 68 c0 52 -5 77 -24 113 l-25 46 45 70 45 70 37 -19 c68
-37 161 -18 205 42 11 15 23 28 26 28 3 0 20 -14 38 -31z m2476 -74 l56 -85
-24 -47 c-20 -36 -25 -61 -25 -113 l0 -68 -55 -22 c-31 -13 -57 -21 -59 -19
-2 2 -16 29 -31 59 -41 82 -110 186 -176 266 -58 71 -58 72 -39 89 19 18 21
18 43 -3 52 -48 128 -55 194 -17 23 14 43 30 43 35 0 25 20 4 73 -75z m-2186
-217 l212 -211 -35 -42 c-19 -24 -47 -65 -62 -92 l-27 -50 -274 114 c-151 62
-277 115 -279 118 -22 22 210 375 246 375 4 0 102 -95 219 -212z m1824 165
c78 -89 213 -312 197 -328 -2 -3 -128 -56 -279 -118 l-274 -114 -32 56 c-17
31 -45 72 -62 91 l-30 35 212 213 c117 116 215 212 219 212 3 0 25 -21 49 -47z
m-1083 -429 l-3 -259 -98 235 c-55 129 -101 240 -104 246 -7 18 181 59 200 44
4 -4 6 -123 5 -266z m215 249 c37 -8 67 -16 67 -17 0 0 -47 -113 -105 -251
l-104 -250 -1 272 0 272 38 -5 c20 -3 67 -12 105 -21z m-391 -294 c54 -129 98
-236 98 -239 0 -3 -83 78 -185 180 -102 102 -185 188 -185 192 0 11 152 109
164 105 6 -2 55 -109 108 -238z m622 190 c42 -28 76 -54 76 -57 0 -4 -84 -90
-186 -192 -103 -102 -184 -178 -181 -170 12 34 186 451 192 460 10 16 20 12
99 -41z m-1746 -93 c2 -2 -8 -40 -22 -83 -29 -94 -52 -208 -61 -315 l-7 -78
-68 0 -67 0 -6 50 c-7 57 -34 101 -78 127 -34 20 -34 31 -9 148 l11 50 57 -3
c72 -4 117 22 150 90 l24 47 36 -15 c20 -8 38 -16 40 -18z m2775 -17 c33 -65
78 -91 149 -87 l57 3 11 -50 c25 -117 25 -128 -9 -148 -44 -26 -71 -70 -78
-127 l-6 -50 -67 0 -68 0 -7 78 c-8 99 -39 250 -65 326 -11 33 -20 62 -20 66
0 8 73 40 78 35 2 -1 13 -22 25 -46z m-2437 -120 c148 -61 271 -113 273 -114
1 -2 -4 -37 -13 -77 -9 -40 -18 -90 -21 -110 l-6 -38 -304 0 c-260 0 -305 2
-305 14 0 8 7 66 15 128 19 146 63 308 83 308 5 0 130 -50 278 -111z m644 -74
l185 -185 -60 23 c-162 65 -411 170 -418 177 -5 4 -1 23 8 41 20 38 86 129 95
129 3 0 88 -83 190 -185z m942 138 c46 -62 72 -113 61 -123 -7 -7 -259 -113
-418 -176 l-60 -24 185 185 c102 102 187 185 190 185 3 0 22 -21 42 -47z m711
10 c36 -92 87 -379 71 -405 -3 -4 -140 -8 -304 -8 l-299 0 -6 38 c-3 20 -13
71 -22 112 -8 41 -12 76 -7 77 5 2 126 53 269 112 143 60 265 110 271 110 7 1
19 -16 27 -36z m-1729 -309 l239 -99 -263 -3 c-145 -1 -267 1 -271 5 -16 17
27 207 45 200 6 -3 119 -49 250 -103z m1140 39 c8 -38 17 -84 18 -103 l3 -35
-270 -2 c-181 -1 -263 1 -250 8 31 15 469 197 476 198 4 1 14 -29 23 -66z
m-2129 -290 c9 -106 30 -213 60 -308 13 -44 25 -83 25 -86 0 -7 -79 -34 -83
-28 -1 2 -11 22 -22 44 -31 60 -78 87 -146 83 l-57 -3 -10 50 c-24 116 -25
108 14 133 43 28 73 90 74 150 l0 42 69 0 69 0 7 -77z m659 55 c19 -101 28
-157 30 -177 1 -22 -20 -32 -274 -137 -151 -63 -275 -114 -277 -114 -1 0 -13
35 -27 79 -26 84 -51 206 -61 309 l-6 62 305 0 306 0 4 -22z m555 18 c-7 -7
-468 -196 -478 -196 -10 0 -26 48 -36 108 -3 18 -7 46 -10 62 l-4 30 266 0
c146 0 264 -2 262 -4z m937 -18 c-3 -13 -8 -41 -11 -63 -10 -68 -25 -115 -36
-115 -10 0 -471 189 -478 196 -2 2 116 4 263 4 l266 0 -4 -22z m639 -40 c-17
-167 -75 -394 -98 -385 -7 3 -134 55 -284 117 l-271 112 13 38 c7 21 16 60 20
87 3 26 8 58 11 71 l4 22 306 0 305 0 -6 -62z m198 2 c6 -66 30 -109 78 -137
32 -19 32 -12 7 -128 l-10 -50 -57 3 c-68 4 -115 -23 -146 -83 -11 -22 -21
-42 -22 -44 -4 -6 -47 8 -66 21 -17 13 -17 16 3 73 26 77 57 228 65 328 l7 77
68 0 67 0 6 -60z m-1772 -47 c-5 -10 -84 -92 -174 -182 l-165 -163 -38 49
c-49 62 -82 125 -69 130 6 2 105 44 220 92 116 49 216 89 223 90 9 1 10 -4 3
-16z m632 -74 c122 -50 224 -93 227 -95 7 -8 -42 -93 -79 -136 l-34 -40 -164
164 c-151 149 -194 198 -178 198 4 0 106 -41 228 -91z m34920 -121 c-26 -26
-52 -48 -58 -48 -6 0 -42 31 -79 69 -77 78 -77 69 -7 144 l35 37 78 -77 78
-77 -47 -48z m-833 40 c0 -8 -140 -138 -149 -138 -4 0 -29 22 -55 49 l-49 50
79 75 79 75 47 -52 c26 -29 48 -55 48 -59z m-34550 -163 l0 -265 -27 0 c-25 0
-139 23 -170 35 -8 3 5 46 43 137 30 73 76 184 101 246 25 61 48 112 50 112 1
0 3 -119 3 -265z m173 30 c53 -126 97 -236 99 -244 3 -16 -108 -49 -169 -50
l-33 -1 0 267 c0 146 2 264 4 262 2 -2 47 -107 99 -234z m-808 68 c11 -20 39
-63 61 -94 l42 -56 -212 -212 c-116 -116 -214 -211 -218 -211 -10 0 -121 140
-163 206 -19 30 -48 80 -64 113 l-30 59 177 73 c97 40 222 92 277 115 55 24
102 43 105 43 3 1 14 -16 25 -36z m1546 -38 c101 -42 228 -94 282 -117 l97
-41 -38 -71 c-21 -39 -50 -89 -64 -111 -35 -55 -147 -195 -156 -195 -4 0 -103
96 -219 213 l-213 212 36 45 c19 25 48 66 62 92 15 27 27 48 28 48 1 0 84 -34
185 -75z m34633 8 c39 -37 72 -70 74 -73 1 -4 -19 -31 -46 -60 l-48 -52 -80
75 -79 75 50 51 c27 28 51 51 53 51 3 0 37 -30 76 -67z m-1228 -35 l48 -51
-79 -73 -80 -73 -38 37 c-69 66 -69 67 14 143 41 38 77 68 80 69 4 0 28 -23
55 -52z m1467 -262 c-21 -22 -44 -46 -51 -54 -14 -16 -12 -17 -130 93 l-42 39
52 53 51 52 79 -71 79 -71 -38 -41z m-1691 -43 c-42 -39 -80 -72 -83 -73 -3 0
-26 24 -52 54 l-47 54 77 71 77 72 53 -53 53 -52 -78 -73z m-34555 142 c-5
-13 -320 -440 -343 -464 -11 -12 -20 -9 -60 25 l-48 38 219 212 c194 189 248
232 232 189z m1229 -190 l216 -210 -43 -37 c-24 -21 -47 -38 -50 -38 -6 0
-330 430 -352 467 -7 12 0 39 8 31 2 -2 101 -97 221 -213z m-2007 148 c35 -72
142 -231 194 -289 26 -29 47 -54 47 -57 0 -2 -16 -16 -35 -31 l-34 -26 -66 52
c-60 48 -231 162 -256 170 -7 2 -7 12 0 31 6 16 11 57 11 93 l0 65 43 19 c62
28 71 25 96 -27z m2645 27 l46 -19 0 -69 c0 -54 5 -79 24 -114 l24 -45 -50
-74 c-55 -83 -78 -110 -78 -92 0 7 -20 24 -43 38 -66 38 -142 31 -195 -18
l-22 -21 -22 21 -21 22 48 53 c54 59 161 218 196 291 13 26 28 47 35 47 7 0
33 -9 58 -20z m34596 -215 c11 -14 6 -23 -35 -65 -27 -28 -52 -50 -55 -50 -3
1 -38 32 -79 70 l-74 68 49 55 48 55 67 -59 c36 -32 72 -66 79 -74z m-36125
79 c33 -7 75 -14 93 -14 l32 0 0 -306 0 -307 -81 7 c-126 10 -350 63 -364 86
-4 7 201 519 222 553 3 5 12 6 22 2 9 -3 43 -13 76 -21z m532 -253 c63 -150
111 -276 108 -281 -14 -23 -238 -76 -364 -86 l-81 -7 0 307 0 306 38 1 c20 0
66 8 102 18 36 10 69 17 75 16 5 -1 60 -124 122 -274z m33517 200 l48 -49 -72
-69 c-40 -37 -75 -69 -79 -71 -4 -1 -29 21 -56 48 l-50 51 71 69 c40 39 76 70
81 70 5 0 30 -22 57 -49z m2212 -153 l75 -73 -53 -52 -53 -52 -76 74 -77 73
45 51 c24 28 49 51 54 51 5 0 43 -33 85 -72z m-2406 -29 l43 -51 -69 -69 c-38
-38 -73 -69 -78 -69 -6 0 -32 21 -58 47 l-48 47 72 73 c40 40 78 73 84 73 6 0
30 -23 54 -51z m-32677 -87 c27 -28 28 -30 25 -145 l-3 -116 -78 105 -78 106
43 38 c24 22 48 39 54 40 5 0 22 -13 37 -28z m35274 -64 l72 -73 -49 -55 -49
-55 -78 77 -78 78 50 50 c27 27 52 50 55 50 3 0 38 -33 77 -72z m-2792 -29
l50 -51 -79 -74 -80 -74 -39 37 c-67 66 -67 65 15 143 40 38 75 69 78 70 3 0
28 -23 55 -51z m-755 -11 c0 -12 8 -30 17 -40 16 -18 17 -18 28 8 11 27 11 27
124 -94 62 -66 111 -124 109 -129 -2 -4 -38 -41 -81 -82 l-78 -75 -64 64 -65
64 0 103 c0 85 -3 103 -15 103 -11 0 -15 12 -15 50 0 43 3 50 20 50 14 0 20
-7 20 -22z m3782 -250 c-55 -58 -90 -54 -164 19 l-58 57 52 53 51 52 78 -72
78 -72 -37 -37z m-3184 15 c-6 -7 -42 -41 -80 -75 l-70 -62 -49 55 -48 54 77
72 77 72 52 -52 c41 -39 50 -54 41 -64z m-33777 52 c84 -29 277 -65 350 -65
45 0 49 -2 49 -24 0 -18 -11 -30 -42 -48 -50 -27 -88 -92 -88 -150 0 -33 -3
-38 -23 -38 -27 0 -114 15 -209 37 l-68 15 0 66 c0 69 -22 135 -53 160 -12 11
-13 19 -5 43 5 16 11 29 12 29 1 0 36 -11 77 -25z m957 -4 c9 -24 7 -32 -8
-46 -10 -9 -24 -30 -30 -46 l-12 -29 -184 0 c-149 0 -184 -3 -184 -14 0 -11
-6 -10 -35 3 -27 12 -34 22 -35 44 0 26 2 27 49 27 73 0 266 36 346 64 88 31
81 31 93 -3z m32587 -171 l49 -50 -24 -25 c-22 -24 -29 -25 -127 -25 -57 0
-103 4 -103 9 0 9 140 141 150 141 3 0 28 -22 55 -50z m-33365 -204 l85 -12 6
-58 c7 -64 28 -99 79 -133 39 -27 116 -31 160 -8 l30 16 0 -56 0 -55 -506 0
c-401 0 -504 3 -498 13 4 6 18 26 31 43 27 36 59 122 69 183 8 48 15 51 39 15
19 -30 87 -63 129 -64 70 0 143 60 160 131 l6 26 62 -14 c35 -8 101 -20 148
-27z m-1882 -100 c72 -37 254 -114 382 -162 l115 -43 -550 0 -550 0 101 38
c107 41 244 100 359 156 39 18 76 34 83 34 7 1 34 -10 60 -23z"/>
</g>
</svg>
